<mxfile host="app.diagrams.net" modified="2022-09-28T12:08:33.936Z" agent="5.0 (Macintosh; Intel Mac OS X 10_15_7) AppleWebKit/537.36 (KHTML, like Gecko) Chrome/105.0.0.0 Safari/537.36" etag="MhvJh2UX7HHP_wNYVJ2r" version="20.3.7" type="github">
  <diagram id="_oVOg_2L8pGMmzJAWcpK" name="Page-1">
    <mxGraphModel dx="1298" dy="734" grid="1" gridSize="10" guides="1" tooltips="1" connect="1" arrows="1" fold="1" page="1" pageScale="1" pageWidth="850" pageHeight="1100" math="0" shadow="0">
      <root>
        <mxCell id="0" />
        <mxCell id="1" parent="0" />
        <mxCell id="DA5ioZ5UG_cv5zVFgSnP-4" style="edgeStyle=orthogonalEdgeStyle;rounded=0;orthogonalLoop=1;jettySize=auto;html=1;exitX=1;exitY=0.5;exitDx=0;exitDy=0;entryX=0;entryY=0.5;entryDx=0;entryDy=0;fontSize=15;" parent="1" source="DA5ioZ5UG_cv5zVFgSnP-1" target="DA5ioZ5UG_cv5zVFgSnP-2" edge="1">
          <mxGeometry relative="1" as="geometry" />
        </mxCell>
        <mxCell id="DA5ioZ5UG_cv5zVFgSnP-1" value="&lt;font style=&quot;font-size: 16px;&quot;&gt;source&lt;/font&gt;" style="rounded=1;whiteSpace=wrap;html=1;fillColor=#dae8fc;strokeColor=#6c8ebf;" parent="1" vertex="1">
          <mxGeometry x="80" y="200" width="120" height="60" as="geometry" />
        </mxCell>
        <mxCell id="DA5ioZ5UG_cv5zVFgSnP-5" style="edgeStyle=orthogonalEdgeStyle;rounded=0;orthogonalLoop=1;jettySize=auto;html=1;exitX=1;exitY=0.5;exitDx=0;exitDy=0;entryX=0;entryY=0.5;entryDx=0;entryDy=0;fontSize=15;" parent="1" source="DA5ioZ5UG_cv5zVFgSnP-2" target="DA5ioZ5UG_cv5zVFgSnP-3" edge="1">
          <mxGeometry relative="1" as="geometry" />
        </mxCell>
        <mxCell id="DA5ioZ5UG_cv5zVFgSnP-2" value="&lt;font style=&quot;font-size: 16px;&quot;&gt;process&lt;/font&gt;" style="rounded=1;whiteSpace=wrap;html=1;fillColor=#d5e8d4;strokeColor=#82b366;" parent="1" vertex="1">
          <mxGeometry x="280" y="200" width="120" height="60" as="geometry" />
        </mxCell>
        <mxCell id="DA5ioZ5UG_cv5zVFgSnP-3" value="&lt;font style=&quot;font-size: 15px;&quot;&gt;sink&lt;/font&gt;" style="rounded=1;whiteSpace=wrap;html=1;fillColor=#e1d5e7;strokeColor=#9673a6;" parent="1" vertex="1">
          <mxGeometry x="480" y="200" width="120" height="60" as="geometry" />
        </mxCell>
        <mxCell id="hzGyoB1nwu1buTJKqw_e-3" style="edgeStyle=orthogonalEdgeStyle;curved=1;rounded=0;orthogonalLoop=1;jettySize=auto;html=1;exitX=0.5;exitY=0;exitDx=0;exitDy=0;entryX=0.5;entryY=0;entryDx=0;entryDy=0;" parent="1" source="hzGyoB1nwu1buTJKqw_e-1" target="hzGyoB1nwu1buTJKqw_e-2" edge="1">
          <mxGeometry relative="1" as="geometry">
            <Array as="points">
              <mxPoint x="190" y="430" />
              <mxPoint x="510" y="430" />
            </Array>
          </mxGeometry>
        </mxCell>
        <mxCell id="hzGyoB1nwu1buTJKqw_e-1" value="DataStream" style="rounded=1;whiteSpace=wrap;html=1;fillColor=#dae8fc;strokeColor=#6c8ebf;" parent="1" vertex="1">
          <mxGeometry x="130" y="490" width="120" height="60" as="geometry" />
        </mxCell>
        <mxCell id="hzGyoB1nwu1buTJKqw_e-4" style="edgeStyle=orthogonalEdgeStyle;curved=1;rounded=0;orthogonalLoop=1;jettySize=auto;html=1;exitX=0.5;exitY=1;exitDx=0;exitDy=0;entryX=0.5;entryY=1;entryDx=0;entryDy=0;" parent="1" source="hzGyoB1nwu1buTJKqw_e-2" target="hzGyoB1nwu1buTJKqw_e-1" edge="1">
          <mxGeometry relative="1" as="geometry">
            <Array as="points">
              <mxPoint x="510" y="610" />
              <mxPoint x="190" y="610" />
            </Array>
          </mxGeometry>
        </mxCell>
        <mxCell id="hzGyoB1nwu1buTJKqw_e-2" value="KeyedStream" style="rounded=1;whiteSpace=wrap;html=1;fillColor=#d5e8d4;strokeColor=#82b366;" parent="1" vertex="1">
          <mxGeometry x="450" y="490" width="120" height="60" as="geometry" />
        </mxCell>
        <mxCell id="hzGyoB1nwu1buTJKqw_e-5" value="keyBy" style="text;html=1;strokeColor=none;fillColor=default;align=center;verticalAlign=middle;whiteSpace=wrap;rounded=0;" parent="1" vertex="1">
          <mxGeometry x="330" y="417" width="50" height="30" as="geometry" />
        </mxCell>
        <mxCell id="hzGyoB1nwu1buTJKqw_e-8" value="aggregations&lt;br&gt;reduce&lt;br&gt;fold" style="text;html=1;strokeColor=none;fillColor=default;align=center;verticalAlign=middle;whiteSpace=wrap;rounded=0;" parent="1" vertex="1">
          <mxGeometry x="320" y="594" width="70" height="30" as="geometry" />
        </mxCell>
        <mxCell id="mNfEn4-VHd71BX42IYY5-13" style="edgeStyle=orthogonalEdgeStyle;rounded=0;orthogonalLoop=1;jettySize=auto;html=1;exitX=1;exitY=0.5;exitDx=0;exitDy=0;entryX=0;entryY=0.5;entryDx=0;entryDy=0;" parent="1" source="mNfEn4-VHd71BX42IYY5-1" target="mNfEn4-VHd71BX42IYY5-2" edge="1">
          <mxGeometry relative="1" as="geometry" />
        </mxCell>
        <mxCell id="mNfEn4-VHd71BX42IYY5-14" style="edgeStyle=orthogonalEdgeStyle;rounded=0;orthogonalLoop=1;jettySize=auto;html=1;exitX=1;exitY=0.5;exitDx=0;exitDy=0;entryX=0;entryY=0.5;entryDx=0;entryDy=0;" parent="1" source="mNfEn4-VHd71BX42IYY5-1" target="mNfEn4-VHd71BX42IYY5-3" edge="1">
          <mxGeometry relative="1" as="geometry" />
        </mxCell>
        <mxCell id="mNfEn4-VHd71BX42IYY5-1" value="&lt;font style=&quot;font-size: 16px;&quot;&gt;State&lt;/font&gt;" style="rounded=1;whiteSpace=wrap;html=1;fillColor=#f8cecc;strokeColor=#b85450;" parent="1" vertex="1">
          <mxGeometry x="40" y="875" width="120" height="50" as="geometry" />
        </mxCell>
        <mxCell id="mNfEn4-VHd71BX42IYY5-15" style="edgeStyle=orthogonalEdgeStyle;rounded=0;orthogonalLoop=1;jettySize=auto;html=1;exitX=1;exitY=0.5;exitDx=0;exitDy=0;entryX=0;entryY=0.5;entryDx=0;entryDy=0;" parent="1" source="mNfEn4-VHd71BX42IYY5-2" target="mNfEn4-VHd71BX42IYY5-5" edge="1">
          <mxGeometry relative="1" as="geometry" />
        </mxCell>
        <mxCell id="mNfEn4-VHd71BX42IYY5-16" style="edgeStyle=orthogonalEdgeStyle;rounded=0;orthogonalLoop=1;jettySize=auto;html=1;exitX=1;exitY=0.5;exitDx=0;exitDy=0;entryX=0;entryY=0.5;entryDx=0;entryDy=0;" parent="1" source="mNfEn4-VHd71BX42IYY5-2" target="mNfEn4-VHd71BX42IYY5-4" edge="1">
          <mxGeometry relative="1" as="geometry" />
        </mxCell>
        <mxCell id="mNfEn4-VHd71BX42IYY5-2" value="&lt;font style=&quot;font-size: 16px;&quot;&gt;ManagedState&lt;/font&gt;" style="rounded=1;whiteSpace=wrap;html=1;fillColor=#e1d5e7;strokeColor=#9673a6;" parent="1" vertex="1">
          <mxGeometry x="200" y="790" width="120" height="50" as="geometry" />
        </mxCell>
        <mxCell id="mNfEn4-VHd71BX42IYY5-3" value="&lt;font style=&quot;font-size: 16px;&quot;&gt;RawState&lt;/font&gt;" style="rounded=1;whiteSpace=wrap;html=1;fillColor=#e1d5e7;strokeColor=#9673a6;" parent="1" vertex="1">
          <mxGeometry x="200" y="960" width="120" height="50" as="geometry" />
        </mxCell>
        <mxCell id="mNfEn4-VHd71BX42IYY5-17" style="edgeStyle=orthogonalEdgeStyle;rounded=0;orthogonalLoop=1;jettySize=auto;html=1;exitX=1;exitY=0.5;exitDx=0;exitDy=0;entryX=0;entryY=0.5;entryDx=0;entryDy=0;" parent="1" source="mNfEn4-VHd71BX42IYY5-4" target="mNfEn4-VHd71BX42IYY5-7" edge="1">
          <mxGeometry relative="1" as="geometry" />
        </mxCell>
        <mxCell id="mNfEn4-VHd71BX42IYY5-18" style="edgeStyle=orthogonalEdgeStyle;rounded=0;orthogonalLoop=1;jettySize=auto;html=1;exitX=1;exitY=0.5;exitDx=0;exitDy=0;entryX=0;entryY=0.5;entryDx=0;entryDy=0;" parent="1" source="mNfEn4-VHd71BX42IYY5-4" target="mNfEn4-VHd71BX42IYY5-6" edge="1">
          <mxGeometry relative="1" as="geometry" />
        </mxCell>
        <mxCell id="mNfEn4-VHd71BX42IYY5-19" style="edgeStyle=orthogonalEdgeStyle;rounded=0;orthogonalLoop=1;jettySize=auto;html=1;exitX=1;exitY=0.5;exitDx=0;exitDy=0;entryX=0;entryY=0.5;entryDx=0;entryDy=0;" parent="1" source="mNfEn4-VHd71BX42IYY5-4" target="mNfEn4-VHd71BX42IYY5-8" edge="1">
          <mxGeometry relative="1" as="geometry" />
        </mxCell>
        <mxCell id="mNfEn4-VHd71BX42IYY5-4" value="&lt;font style=&quot;font-size: 16px;&quot;&gt;KeyedState&lt;/font&gt;" style="rounded=1;whiteSpace=wrap;html=1;fillColor=#d5e8d4;strokeColor=#82b366;flipV=1;" parent="1" vertex="1">
          <mxGeometry x="360" y="860" width="120" height="50" as="geometry" />
        </mxCell>
        <mxCell id="mNfEn4-VHd71BX42IYY5-5" value="&lt;span style=&quot;font-size: 16px;&quot;&gt;OperatorState&lt;/span&gt;" style="rounded=1;whiteSpace=wrap;html=1;fillColor=#d5e8d4;strokeColor=#82b366;flipV=1;" parent="1" vertex="1">
          <mxGeometry x="360" y="720" width="120" height="50" as="geometry" />
        </mxCell>
        <mxCell id="mNfEn4-VHd71BX42IYY5-6" value="&lt;font style=&quot;font-size: 16px;&quot;&gt;ValueState&lt;/font&gt;" style="rounded=1;whiteSpace=wrap;html=1;fillColor=#ffe6cc;strokeColor=#d79b00;" parent="1" vertex="1">
          <mxGeometry x="520" y="780" width="120" height="50" as="geometry" />
        </mxCell>
        <mxCell id="mNfEn4-VHd71BX42IYY5-7" value="&lt;font style=&quot;font-size: 16px;&quot;&gt;MapState&lt;/font&gt;" style="rounded=1;whiteSpace=wrap;html=1;fillColor=#ffe6cc;strokeColor=#d79b00;" parent="1" vertex="1">
          <mxGeometry x="520" y="860" width="120" height="50" as="geometry" />
        </mxCell>
        <mxCell id="mNfEn4-VHd71BX42IYY5-20" style="edgeStyle=orthogonalEdgeStyle;rounded=0;orthogonalLoop=1;jettySize=auto;html=1;exitX=1;exitY=0.5;exitDx=0;exitDy=0;entryX=0;entryY=0.5;entryDx=0;entryDy=0;" parent="1" source="mNfEn4-VHd71BX42IYY5-8" target="mNfEn4-VHd71BX42IYY5-11" edge="1">
          <mxGeometry relative="1" as="geometry" />
        </mxCell>
        <mxCell id="mNfEn4-VHd71BX42IYY5-21" style="edgeStyle=orthogonalEdgeStyle;rounded=0;orthogonalLoop=1;jettySize=auto;html=1;exitX=1;exitY=0.5;exitDx=0;exitDy=0;entryX=0;entryY=0.5;entryDx=0;entryDy=0;" parent="1" source="mNfEn4-VHd71BX42IYY5-8" target="mNfEn4-VHd71BX42IYY5-10" edge="1">
          <mxGeometry relative="1" as="geometry" />
        </mxCell>
        <mxCell id="mNfEn4-VHd71BX42IYY5-22" style="edgeStyle=orthogonalEdgeStyle;rounded=0;orthogonalLoop=1;jettySize=auto;html=1;exitX=1;exitY=0.5;exitDx=0;exitDy=0;entryX=0;entryY=0.5;entryDx=0;entryDy=0;" parent="1" source="mNfEn4-VHd71BX42IYY5-8" target="mNfEn4-VHd71BX42IYY5-12" edge="1">
          <mxGeometry relative="1" as="geometry" />
        </mxCell>
        <mxCell id="mNfEn4-VHd71BX42IYY5-8" value="&lt;font style=&quot;font-size: 16px;&quot;&gt;AppendingState&lt;/font&gt;" style="rounded=1;whiteSpace=wrap;html=1;fillColor=#ffe6cc;strokeColor=#d79b00;" parent="1" vertex="1">
          <mxGeometry x="520" y="940" width="120" height="50" as="geometry" />
        </mxCell>
        <mxCell id="mNfEn4-VHd71BX42IYY5-10" value="&lt;font style=&quot;font-size: 16px;&quot;&gt;ListState&lt;/font&gt;" style="rounded=1;whiteSpace=wrap;html=1;fillColor=#fff2cc;strokeColor=#d6b656;" parent="1" vertex="1">
          <mxGeometry x="680" y="860" width="120" height="50" as="geometry" />
        </mxCell>
        <mxCell id="mNfEn4-VHd71BX42IYY5-11" value="&lt;font style=&quot;font-size: 16px;&quot;&gt;ReducingState&lt;/font&gt;" style="rounded=1;whiteSpace=wrap;html=1;fillColor=#fff2cc;strokeColor=#d6b656;" parent="1" vertex="1">
          <mxGeometry x="680" y="940" width="120" height="50" as="geometry" />
        </mxCell>
        <mxCell id="mNfEn4-VHd71BX42IYY5-12" value="&lt;font style=&quot;font-size: 16px;&quot;&gt;Aggregating&lt;br&gt;State&lt;/font&gt;" style="rounded=1;whiteSpace=wrap;html=1;fillColor=#fff2cc;strokeColor=#d6b656;" parent="1" vertex="1">
          <mxGeometry x="680" y="1020" width="120" height="50" as="geometry" />
        </mxCell>
        <mxCell id="cq7n2qohAcCtZKUBrd6M-1" value="" style="outlineConnect=0;dashed=0;verticalLabelPosition=bottom;verticalAlign=top;align=center;html=1;shape=mxgraph.aws3.user;fillColor=#D2D3D3;gradientColor=none;flipH=0;flipV=0;" parent="1" vertex="1">
          <mxGeometry x="77.5" y="1360" width="45" height="63" as="geometry" />
        </mxCell>
        <mxCell id="cq7n2qohAcCtZKUBrd6M-2" value="" style="outlineConnect=0;dashed=0;verticalLabelPosition=bottom;verticalAlign=top;align=center;html=1;shape=mxgraph.aws3.user;fillColor=#D2D3D3;gradientColor=none;flipH=0;flipV=0;" parent="1" vertex="1">
          <mxGeometry x="157.5" y="1360" width="45" height="63" as="geometry" />
        </mxCell>
        <mxCell id="cq7n2qohAcCtZKUBrd6M-5" value="" style="outlineConnect=0;dashed=0;verticalLabelPosition=bottom;verticalAlign=top;align=center;html=1;shape=mxgraph.aws3.user;fillColor=#D2D3D3;gradientColor=none;flipH=0;flipV=0;" parent="1" vertex="1">
          <mxGeometry x="347.5" y="1360" width="45" height="63" as="geometry" />
        </mxCell>
        <mxCell id="cq7n2qohAcCtZKUBrd6M-6" value="" style="outlineConnect=0;dashed=0;verticalLabelPosition=bottom;verticalAlign=top;align=center;html=1;shape=mxgraph.aws3.user;fillColor=#D2D3D3;gradientColor=none;flipH=0;flipV=0;" parent="1" vertex="1">
          <mxGeometry x="494.38" y="1360" width="45" height="63" as="geometry" />
        </mxCell>
        <mxCell id="cq7n2qohAcCtZKUBrd6M-7" value="" style="outlineConnect=0;dashed=0;verticalLabelPosition=bottom;verticalAlign=top;align=center;html=1;shape=mxgraph.aws3.user;fillColor=#D2D3D3;gradientColor=none;flipH=0;flipV=0;" parent="1" vertex="1">
          <mxGeometry x="603.38" y="1360" width="45" height="63" as="geometry" />
        </mxCell>
        <mxCell id="cq7n2qohAcCtZKUBrd6M-8" value="" style="outlineConnect=0;dashed=0;verticalLabelPosition=bottom;verticalAlign=top;align=center;html=1;shape=mxgraph.aws3.user;fillColor=#D2D3D3;gradientColor=none;flipH=0;flipV=0;" parent="1" vertex="1">
          <mxGeometry x="711.38" y="1360" width="45" height="63" as="geometry" />
        </mxCell>
        <mxCell id="cq7n2qohAcCtZKUBrd6M-9" value="" style="outlineConnect=0;dashed=0;verticalLabelPosition=bottom;verticalAlign=top;align=center;html=1;shape=mxgraph.aws3.user;fillColor=#D2D3D3;gradientColor=none;flipH=0;flipV=0;" parent="1" vertex="1">
          <mxGeometry x="820.38" y="1360" width="45" height="63" as="geometry" />
        </mxCell>
        <mxCell id="cq7n2qohAcCtZKUBrd6M-10" value="Ticket 8:01" style="text;html=1;strokeColor=none;fillColor=none;align=center;verticalAlign=middle;whiteSpace=wrap;rounded=0;" parent="1" vertex="1">
          <mxGeometry x="70" y="1430" width="60" height="30" as="geometry" />
        </mxCell>
        <mxCell id="cq7n2qohAcCtZKUBrd6M-11" value="Ticket 8:02" style="text;html=1;strokeColor=none;fillColor=none;align=center;verticalAlign=middle;whiteSpace=wrap;rounded=0;" parent="1" vertex="1">
          <mxGeometry x="150" y="1430" width="60" height="30" as="geometry" />
        </mxCell>
        <mxCell id="cq7n2qohAcCtZKUBrd6M-12" value="Ticket 8:22" style="text;html=1;strokeColor=none;fillColor=none;align=center;verticalAlign=middle;whiteSpace=wrap;rounded=0;" parent="1" vertex="1">
          <mxGeometry x="340" y="1430" width="60" height="30" as="geometry" />
        </mxCell>
        <mxCell id="cq7n2qohAcCtZKUBrd6M-13" value="" style="rounded=0;whiteSpace=wrap;html=1;" parent="1" vertex="1">
          <mxGeometry x="77.5" y="1200" width="402.5" height="60" as="geometry" />
        </mxCell>
        <mxCell id="cq7n2qohAcCtZKUBrd6M-14" value="" style="rounded=0;whiteSpace=wrap;html=1;" parent="1" vertex="1">
          <mxGeometry x="480" y="1200" width="400" height="60" as="geometry" />
        </mxCell>
        <mxCell id="cq7n2qohAcCtZKUBrd6M-15" value="Ticket 8:31" style="text;html=1;strokeColor=none;fillColor=none;align=center;verticalAlign=middle;whiteSpace=wrap;rounded=0;" parent="1" vertex="1">
          <mxGeometry x="487.13" y="1430" width="60" height="30" as="geometry" />
        </mxCell>
        <mxCell id="cq7n2qohAcCtZKUBrd6M-16" value="Ticket 8:32" style="text;html=1;strokeColor=none;fillColor=none;align=center;verticalAlign=middle;whiteSpace=wrap;rounded=0;" parent="1" vertex="1">
          <mxGeometry x="595.63" y="1430" width="60" height="30" as="geometry" />
        </mxCell>
        <mxCell id="cq7n2qohAcCtZKUBrd6M-17" value="Ticket 8:23" style="text;html=1;strokeColor=none;fillColor=none;align=center;verticalAlign=middle;whiteSpace=wrap;rounded=0;" parent="1" vertex="1">
          <mxGeometry x="704.63" y="1430" width="60" height="30" as="geometry" />
        </mxCell>
        <mxCell id="cq7n2qohAcCtZKUBrd6M-18" value="Ticket 8:40" style="text;html=1;strokeColor=none;fillColor=none;align=center;verticalAlign=middle;whiteSpace=wrap;rounded=0;" parent="1" vertex="1">
          <mxGeometry x="812.88" y="1430" width="60" height="30" as="geometry" />
        </mxCell>
        <mxCell id="cq7n2qohAcCtZKUBrd6M-19" value="" style="ellipse;whiteSpace=wrap;html=1;aspect=fixed;" parent="1" vertex="1">
          <mxGeometry x="90" y="1220" width="20" height="20" as="geometry" />
        </mxCell>
        <mxCell id="cq7n2qohAcCtZKUBrd6M-20" value="" style="ellipse;whiteSpace=wrap;html=1;aspect=fixed;" parent="1" vertex="1">
          <mxGeometry x="122.5" y="1220" width="20" height="20" as="geometry" />
        </mxCell>
        <mxCell id="cq7n2qohAcCtZKUBrd6M-21" value="" style="ellipse;whiteSpace=wrap;html=1;aspect=fixed;" parent="1" vertex="1">
          <mxGeometry x="360" y="1220" width="20" height="20" as="geometry" />
        </mxCell>
        <mxCell id="cq7n2qohAcCtZKUBrd6M-22" value="" style="ellipse;whiteSpace=wrap;html=1;aspect=fixed;" parent="1" vertex="1">
          <mxGeometry x="400" y="1220" width="20" height="20" as="geometry" />
        </mxCell>
        <mxCell id="cq7n2qohAcCtZKUBrd6M-23" value="" style="ellipse;whiteSpace=wrap;html=1;aspect=fixed;" parent="1" vertex="1">
          <mxGeometry x="494.38" y="1220" width="20" height="20" as="geometry" />
        </mxCell>
        <mxCell id="cq7n2qohAcCtZKUBrd6M-24" value="" style="ellipse;whiteSpace=wrap;html=1;aspect=fixed;" parent="1" vertex="1">
          <mxGeometry x="526.88" y="1220" width="20" height="20" as="geometry" />
        </mxCell>
        <mxCell id="cq7n2qohAcCtZKUBrd6M-25" value="" style="ellipse;whiteSpace=wrap;html=1;aspect=fixed;" parent="1" vertex="1">
          <mxGeometry x="764.38" y="1220" width="20" height="20" as="geometry" />
        </mxCell>
        <mxCell id="cq7n2qohAcCtZKUBrd6M-26" value="8:00" style="text;html=1;strokeColor=none;fillColor=none;align=center;verticalAlign=middle;whiteSpace=wrap;rounded=0;" parent="1" vertex="1">
          <mxGeometry x="75.5" y="1170" width="32.5" height="30" as="geometry" />
        </mxCell>
        <mxCell id="cq7n2qohAcCtZKUBrd6M-27" value="8:30" style="text;html=1;strokeColor=none;fillColor=none;align=center;verticalAlign=middle;whiteSpace=wrap;rounded=0;" parent="1" vertex="1">
          <mxGeometry x="480" y="1170" width="32.5" height="30" as="geometry" />
        </mxCell>
        <mxCell id="cq7n2qohAcCtZKUBrd6M-28" value="9:00" style="text;html=1;strokeColor=none;fillColor=none;align=center;verticalAlign=middle;whiteSpace=wrap;rounded=0;" parent="1" vertex="1">
          <mxGeometry x="879" y="1170" width="32.5" height="30" as="geometry" />
        </mxCell>
        <mxCell id="cq7n2qohAcCtZKUBrd6M-29" style="rounded=0;orthogonalLoop=1;jettySize=auto;html=1;exitX=0.5;exitY=0;exitDx=0;exitDy=0;exitPerimeter=0;entryX=0.5;entryY=1;entryDx=0;entryDy=0;dashed=1;startArrow=none;" parent="1" source="cq7n2qohAcCtZKUBrd6M-36" target="cq7n2qohAcCtZKUBrd6M-19" edge="1">
          <mxGeometry relative="1" as="geometry" />
        </mxCell>
        <mxCell id="cq7n2qohAcCtZKUBrd6M-31" style="edgeStyle=none;rounded=0;orthogonalLoop=1;jettySize=auto;html=1;exitX=0.5;exitY=0;exitDx=0;exitDy=0;exitPerimeter=0;entryX=0.727;entryY=0.667;entryDx=0;entryDy=0;entryPerimeter=0;dashed=1;" parent="1" source="cq7n2qohAcCtZKUBrd6M-5" target="cq7n2qohAcCtZKUBrd6M-13" edge="1">
          <mxGeometry relative="1" as="geometry" />
        </mxCell>
        <mxCell id="cq7n2qohAcCtZKUBrd6M-32" style="edgeStyle=none;rounded=0;orthogonalLoop=1;jettySize=auto;html=1;exitX=0.5;exitY=0;exitDx=0;exitDy=0;exitPerimeter=0;entryX=0.5;entryY=1;entryDx=0;entryDy=0;dashed=1;" parent="1" source="cq7n2qohAcCtZKUBrd6M-8" target="cq7n2qohAcCtZKUBrd6M-22" edge="1">
          <mxGeometry relative="1" as="geometry" />
        </mxCell>
        <mxCell id="cq7n2qohAcCtZKUBrd6M-33" style="edgeStyle=none;rounded=0;orthogonalLoop=1;jettySize=auto;html=1;exitX=0.5;exitY=0;exitDx=0;exitDy=0;exitPerimeter=0;entryX=0.5;entryY=1;entryDx=0;entryDy=0;dashed=1;" parent="1" source="cq7n2qohAcCtZKUBrd6M-6" target="cq7n2qohAcCtZKUBrd6M-23" edge="1">
          <mxGeometry relative="1" as="geometry" />
        </mxCell>
        <mxCell id="cq7n2qohAcCtZKUBrd6M-34" style="edgeStyle=none;rounded=0;orthogonalLoop=1;jettySize=auto;html=1;exitX=0.5;exitY=0;exitDx=0;exitDy=0;exitPerimeter=0;entryX=0.5;entryY=1;entryDx=0;entryDy=0;dashed=1;" parent="1" source="cq7n2qohAcCtZKUBrd6M-7" target="cq7n2qohAcCtZKUBrd6M-24" edge="1">
          <mxGeometry relative="1" as="geometry" />
        </mxCell>
        <mxCell id="cq7n2qohAcCtZKUBrd6M-35" style="edgeStyle=none;rounded=0;orthogonalLoop=1;jettySize=auto;html=1;exitX=0.5;exitY=0;exitDx=0;exitDy=0;exitPerimeter=0;entryX=0.5;entryY=1;entryDx=0;entryDy=0;dashed=1;" parent="1" source="cq7n2qohAcCtZKUBrd6M-9" target="cq7n2qohAcCtZKUBrd6M-25" edge="1">
          <mxGeometry relative="1" as="geometry" />
        </mxCell>
        <mxCell id="cq7n2qohAcCtZKUBrd6M-30" style="edgeStyle=none;rounded=0;orthogonalLoop=1;jettySize=auto;html=1;exitX=0.5;exitY=0;exitDx=0;exitDy=0;exitPerimeter=0;entryX=0.5;entryY=1;entryDx=0;entryDy=0;dashed=1;" parent="1" source="cq7n2qohAcCtZKUBrd6M-2" target="cq7n2qohAcCtZKUBrd6M-20" edge="1">
          <mxGeometry relative="1" as="geometry" />
        </mxCell>
        <mxCell id="cq7n2qohAcCtZKUBrd6M-36" value="8:02" style="text;html=1;strokeColor=none;fillColor=none;align=center;verticalAlign=middle;whiteSpace=wrap;rounded=0;" parent="1" vertex="1">
          <mxGeometry x="83.75" y="1290" width="32.5" height="30" as="geometry" />
        </mxCell>
        <mxCell id="cq7n2qohAcCtZKUBrd6M-37" value="" style="rounded=0;orthogonalLoop=1;jettySize=auto;html=1;exitX=0.5;exitY=0;exitDx=0;exitDy=0;exitPerimeter=0;entryX=0.5;entryY=1;entryDx=0;entryDy=0;dashed=1;endArrow=none;" parent="1" source="cq7n2qohAcCtZKUBrd6M-1" target="cq7n2qohAcCtZKUBrd6M-36" edge="1">
          <mxGeometry relative="1" as="geometry">
            <mxPoint x="100" y="1360" as="sourcePoint" />
            <mxPoint x="100" y="1240" as="targetPoint" />
          </mxGeometry>
        </mxCell>
        <mxCell id="cq7n2qohAcCtZKUBrd6M-38" value="8:03" style="text;html=1;strokeColor=none;fillColor=none;align=center;verticalAlign=middle;whiteSpace=wrap;rounded=0;" parent="1" vertex="1">
          <mxGeometry x="142.5" y="1290" width="32.5" height="30" as="geometry" />
        </mxCell>
        <mxCell id="cq7n2qohAcCtZKUBrd6M-40" value="8:23" style="text;html=1;strokeColor=none;fillColor=none;align=center;verticalAlign=middle;whiteSpace=wrap;rounded=0;" parent="1" vertex="1">
          <mxGeometry x="357" y="1290" width="32.5" height="30" as="geometry" />
        </mxCell>
        <mxCell id="cq7n2qohAcCtZKUBrd6M-41" value="8:32" style="text;html=1;strokeColor=none;fillColor=none;align=center;verticalAlign=middle;whiteSpace=wrap;rounded=0;" parent="1" vertex="1">
          <mxGeometry x="493.13" y="1290" width="32.5" height="30" as="geometry" />
        </mxCell>
        <mxCell id="cq7n2qohAcCtZKUBrd6M-42" value="8:33" style="text;html=1;strokeColor=none;fillColor=none;align=center;verticalAlign=middle;whiteSpace=wrap;rounded=0;" parent="1" vertex="1">
          <mxGeometry x="592" y="1320" width="32.5" height="30" as="geometry" />
        </mxCell>
        <mxCell id="cq7n2qohAcCtZKUBrd6M-43" value="8:38" style="text;html=1;strokeColor=none;fillColor=none;align=center;verticalAlign=middle;whiteSpace=wrap;rounded=0;" parent="1" vertex="1">
          <mxGeometry x="658.38" y="1320" width="32.5" height="30" as="geometry" />
        </mxCell>
        <mxCell id="cq7n2qohAcCtZKUBrd6M-44" value="8:41" style="text;html=1;strokeColor=none;fillColor=none;align=center;verticalAlign=middle;whiteSpace=wrap;rounded=0;" parent="1" vertex="1">
          <mxGeometry x="812.88" y="1320" width="32.5" height="30" as="geometry" />
        </mxCell>
        <mxCell id="J0k0K2RpD5jGurKQZD3m-1" value="Assigner" style="rounded=1;whiteSpace=wrap;html=1;fillColor=#dae8fc;strokeColor=#6c8ebf;" vertex="1" parent="1">
          <mxGeometry x="880" y="243" width="120" height="60" as="geometry" />
        </mxCell>
        <mxCell id="J0k0K2RpD5jGurKQZD3m-2" value="Evictor" style="rounded=1;whiteSpace=wrap;html=1;fillColor=#dae8fc;strokeColor=#6c8ebf;" vertex="1" parent="1">
          <mxGeometry x="880" y="313" width="120" height="60" as="geometry" />
        </mxCell>
        <mxCell id="J0k0K2RpD5jGurKQZD3m-3" value="Trigger" style="rounded=1;whiteSpace=wrap;html=1;fillColor=#dae8fc;strokeColor=#6c8ebf;" vertex="1" parent="1">
          <mxGeometry x="880" y="387" width="120" height="60" as="geometry" />
        </mxCell>
        <mxCell id="J0k0K2RpD5jGurKQZD3m-4" value="" style="rounded=0;whiteSpace=wrap;html=1;fillColor=none;dashed=1;" vertex="1" parent="1">
          <mxGeometry x="860" y="220" width="160" height="240" as="geometry" />
        </mxCell>
        <mxCell id="J0k0K2RpD5jGurKQZD3m-5" value="窗口的构成元素" style="text;html=1;strokeColor=none;fillColor=default;align=center;verticalAlign=middle;whiteSpace=wrap;rounded=0;dashed=1;" vertex="1" parent="1">
          <mxGeometry x="865.38" y="205" width="90" height="25" as="geometry" />
        </mxCell>
      </root>
    </mxGraphModel>
  </diagram>
</mxfile>
